<mxfile host="app.diagrams.net" modified="2023-09-22T03:30:32.890Z" agent="Mozilla/5.0 (Windows NT 10.0; Win64; x64) AppleWebKit/537.36 (KHTML, like Gecko) Chrome/116.0.0.0 Safari/537.36" etag="cPb37_A8TgCscnTgPyq-" version="21.8.0" type="github">
  <diagram name="第 1 页" id="UwXbvs8-6wGSBFen9u6A">
    <mxGraphModel dx="1434" dy="790" grid="1" gridSize="10" guides="1" tooltips="1" connect="1" arrows="1" fold="1" page="1" pageScale="1" pageWidth="827" pageHeight="1169" math="0" shadow="0">
      <root>
        <mxCell id="0" />
        <mxCell id="1" parent="0" />
        <mxCell id="uOvuf1iqu3I4wZwHkAGr-1" value="User" style="swimlane;fontStyle=1;align=center;verticalAlign=top;childLayout=stackLayout;horizontal=1;startSize=32;horizontalStack=0;resizeParent=1;resizeParentMax=0;resizeLast=0;collapsible=0;marginBottom=0;" vertex="1" parent="1">
          <mxGeometry x="420" y="20" width="156" height="104" as="geometry" />
        </mxCell>
        <mxCell id="uOvuf1iqu3I4wZwHkAGr-2" value="-name: String" style="text;strokeColor=none;fillColor=none;align=left;verticalAlign=top;spacingLeft=4;spacingRight=4;overflow=hidden;rotatable=0;points=[[0,0.5],[1,0.5]];portConstraint=eastwest;" vertex="1" parent="uOvuf1iqu3I4wZwHkAGr-1">
          <mxGeometry y="32" width="156" height="32" as="geometry" />
        </mxCell>
        <mxCell id="uOvuf1iqu3I4wZwHkAGr-3" style="line;strokeWidth=1;fillColor=none;align=left;verticalAlign=middle;spacingTop=-1;spacingLeft=3;spacingRight=3;rotatable=0;labelPosition=right;points=[];portConstraint=eastwest;strokeColor=inherit;" vertex="1" parent="uOvuf1iqu3I4wZwHkAGr-1">
          <mxGeometry y="64" width="156" height="8" as="geometry" />
        </mxCell>
        <mxCell id="uOvuf1iqu3I4wZwHkAGr-4" value="+getName(): String" style="text;strokeColor=none;fillColor=none;align=left;verticalAlign=top;spacingLeft=4;spacingRight=4;overflow=hidden;rotatable=0;points=[[0,0.5],[1,0.5]];portConstraint=eastwest;" vertex="1" parent="uOvuf1iqu3I4wZwHkAGr-1">
          <mxGeometry y="72" width="156" height="32" as="geometry" />
        </mxCell>
        <mxCell id="uOvuf1iqu3I4wZwHkAGr-5" value="UserProfile" style="swimlane;fontStyle=1;align=center;verticalAlign=top;childLayout=stackLayout;horizontal=1;startSize=27.5;horizontalStack=0;resizeParent=1;resizeParentMax=0;resizeLast=0;collapsible=0;marginBottom=0;" vertex="1" parent="1">
          <mxGeometry x="20" y="193" width="432" height="175.5" as="geometry" />
        </mxCell>
        <mxCell id="uOvuf1iqu3I4wZwHkAGr-6" value="-email: String" style="text;strokeColor=none;fillColor=none;align=left;verticalAlign=top;spacingLeft=4;spacingRight=4;overflow=hidden;rotatable=0;points=[[0,0.5],[1,0.5]];portConstraint=eastwest;" vertex="1" parent="uOvuf1iqu3I4wZwHkAGr-5">
          <mxGeometry y="27.5" width="432" height="28" as="geometry" />
        </mxCell>
        <mxCell id="uOvuf1iqu3I4wZwHkAGr-7" value="-phoneNumber: String" style="text;strokeColor=none;fillColor=none;align=left;verticalAlign=top;spacingLeft=4;spacingRight=4;overflow=hidden;rotatable=0;points=[[0,0.5],[1,0.5]];portConstraint=eastwest;" vertex="1" parent="uOvuf1iqu3I4wZwHkAGr-5">
          <mxGeometry y="55.5" width="432" height="28" as="geometry" />
        </mxCell>
        <mxCell id="uOvuf1iqu3I4wZwHkAGr-8" style="line;strokeWidth=1;fillColor=none;align=left;verticalAlign=middle;spacingTop=-1;spacingLeft=3;spacingRight=3;rotatable=0;labelPosition=right;points=[];portConstraint=eastwest;strokeColor=inherit;" vertex="1" parent="uOvuf1iqu3I4wZwHkAGr-5">
          <mxGeometry y="83.5" width="432" height="8" as="geometry" />
        </mxCell>
        <mxCell id="uOvuf1iqu3I4wZwHkAGr-9" value="+getEmail(): String" style="text;strokeColor=none;fillColor=none;align=left;verticalAlign=top;spacingLeft=4;spacingRight=4;overflow=hidden;rotatable=0;points=[[0,0.5],[1,0.5]];portConstraint=eastwest;" vertex="1" parent="uOvuf1iqu3I4wZwHkAGr-5">
          <mxGeometry y="91.5" width="432" height="28" as="geometry" />
        </mxCell>
        <mxCell id="uOvuf1iqu3I4wZwHkAGr-10" value="+getPhoneNumber(): String" style="text;strokeColor=none;fillColor=none;align=left;verticalAlign=top;spacingLeft=4;spacingRight=4;overflow=hidden;rotatable=0;points=[[0,0.5],[1,0.5]];portConstraint=eastwest;" vertex="1" parent="uOvuf1iqu3I4wZwHkAGr-5">
          <mxGeometry y="119.5" width="432" height="28" as="geometry" />
        </mxCell>
        <mxCell id="uOvuf1iqu3I4wZwHkAGr-11" value="+updateProfile(email: String, phoneNumber: String): void" style="text;strokeColor=none;fillColor=none;align=left;verticalAlign=top;spacingLeft=4;spacingRight=4;overflow=hidden;rotatable=0;points=[[0,0.5],[1,0.5]];portConstraint=eastwest;" vertex="1" parent="uOvuf1iqu3I4wZwHkAGr-5">
          <mxGeometry y="147.5" width="432" height="28" as="geometry" />
        </mxCell>
        <mxCell id="uOvuf1iqu3I4wZwHkAGr-12" value="PrivacySettings" style="swimlane;fontStyle=1;align=center;verticalAlign=top;childLayout=stackLayout;horizontal=1;startSize=27.5;horizontalStack=0;resizeParent=1;resizeParentMax=0;resizeLast=0;collapsible=0;marginBottom=0;" vertex="1" parent="1">
          <mxGeometry x="502" y="193" width="516" height="175.5" as="geometry" />
        </mxCell>
        <mxCell id="uOvuf1iqu3I4wZwHkAGr-13" value="-shareProfile: boolean" style="text;strokeColor=none;fillColor=none;align=left;verticalAlign=top;spacingLeft=4;spacingRight=4;overflow=hidden;rotatable=0;points=[[0,0.5],[1,0.5]];portConstraint=eastwest;" vertex="1" parent="uOvuf1iqu3I4wZwHkAGr-12">
          <mxGeometry y="27.5" width="516" height="28" as="geometry" />
        </mxCell>
        <mxCell id="uOvuf1iqu3I4wZwHkAGr-14" value="-sharePosts: boolean" style="text;strokeColor=none;fillColor=none;align=left;verticalAlign=top;spacingLeft=4;spacingRight=4;overflow=hidden;rotatable=0;points=[[0,0.5],[1,0.5]];portConstraint=eastwest;" vertex="1" parent="uOvuf1iqu3I4wZwHkAGr-12">
          <mxGeometry y="55.5" width="516" height="28" as="geometry" />
        </mxCell>
        <mxCell id="uOvuf1iqu3I4wZwHkAGr-15" style="line;strokeWidth=1;fillColor=none;align=left;verticalAlign=middle;spacingTop=-1;spacingLeft=3;spacingRight=3;rotatable=0;labelPosition=right;points=[];portConstraint=eastwest;strokeColor=inherit;" vertex="1" parent="uOvuf1iqu3I4wZwHkAGr-12">
          <mxGeometry y="83.5" width="516" height="8" as="geometry" />
        </mxCell>
        <mxCell id="uOvuf1iqu3I4wZwHkAGr-16" value="+getShareProfile(): boolean" style="text;strokeColor=none;fillColor=none;align=left;verticalAlign=top;spacingLeft=4;spacingRight=4;overflow=hidden;rotatable=0;points=[[0,0.5],[1,0.5]];portConstraint=eastwest;" vertex="1" parent="uOvuf1iqu3I4wZwHkAGr-12">
          <mxGeometry y="91.5" width="516" height="28" as="geometry" />
        </mxCell>
        <mxCell id="uOvuf1iqu3I4wZwHkAGr-17" value="+getSharePosts(): boolean" style="text;strokeColor=none;fillColor=none;align=left;verticalAlign=top;spacingLeft=4;spacingRight=4;overflow=hidden;rotatable=0;points=[[0,0.5],[1,0.5]];portConstraint=eastwest;" vertex="1" parent="uOvuf1iqu3I4wZwHkAGr-12">
          <mxGeometry y="119.5" width="516" height="28" as="geometry" />
        </mxCell>
        <mxCell id="uOvuf1iqu3I4wZwHkAGr-18" value="+setPrivacySettings(shareProfile: boolean, sharePosts: boolean): void" style="text;strokeColor=none;fillColor=none;align=left;verticalAlign=top;spacingLeft=4;spacingRight=4;overflow=hidden;rotatable=0;points=[[0,0.5],[1,0.5]];portConstraint=eastwest;" vertex="1" parent="uOvuf1iqu3I4wZwHkAGr-12">
          <mxGeometry y="147.5" width="516" height="28" as="geometry" />
        </mxCell>
        <mxCell id="uOvuf1iqu3I4wZwHkAGr-19" value="编辑个人资料" style="curved=1;startArrow=none;endArrow=open;endSize=12;exitX=0.001226963141025641;exitY=0.7475860113378191;entryX=0.5004159432870371;entryY=0;rounded=0;" edge="1" parent="1" source="uOvuf1iqu3I4wZwHkAGr-1" target="uOvuf1iqu3I4wZwHkAGr-5">
          <mxGeometry relative="1" as="geometry">
            <Array as="points">
              <mxPoint x="236" y="159" />
            </Array>
          </mxGeometry>
        </mxCell>
        <mxCell id="uOvuf1iqu3I4wZwHkAGr-20" value="设置隐私偏好" style="curved=1;startArrow=none;endArrow=open;endSize=12;exitX=1.0011268028846154;exitY=0.7475860113378191;entryX=0.5003633720930233;entryY=0;rounded=0;" edge="1" parent="1" source="uOvuf1iqu3I4wZwHkAGr-1" target="uOvuf1iqu3I4wZwHkAGr-12">
          <mxGeometry relative="1" as="geometry">
            <Array as="points">
              <mxPoint x="760" y="159" />
            </Array>
          </mxGeometry>
        </mxCell>
      </root>
    </mxGraphModel>
  </diagram>
</mxfile>
